<svg xmlns="http://www.w3.org/2000/svg" xmlns:xlink="http://www.w3.org/1999/xlink" width="52.769ex" height="5.318ex" viewBox="0 -1490.3 22719.7 2289.7" style="vertical-align:-1.856ex"><defs><path id="a" d="M107 637q-34 0-36 4-1 2-1 8 0 24 11 33 2 1 17 1 41-2 136-2 34 0 63 0t45 1 20 0q16 0 16-10 0-2-2-14-5-17-10-20h-14l-9-1h-9q-39-1-50-3t-18-11q-1-2-28-105t-54-216-30-133q-2-14-2-29 0-54 31-85t86-31q67 0 134 45t98 136l51 201q47 192 47 200 0 27-64 31-24 0-24 11 0 2 2 12 4 16 6 19t10 4q3 0 32-1t84-2q51 0 78 1t29 1q15 0 15-10 0-22-8-30-3-5-22-5-71-4-89-40-2-5-50-193-41-169-50-199-33-100-115-163T263-22q-92 0-147 56T60 167v16q0 18 55 238 49 201 49 207 0 7-57 9z"/><path id="b" d="M21 287q1 6 3 16t12 38 20 47 33 37 46 17q36 0 60-18t30-34 6-21q0-2 1-2l11 11q61 64 139 64 54 0 87-27t34-79-38-157-38-127q0-26 17-26 6 0 9 1 29 5 52 38t35 80q2 8 20 8 20 0 20-8 0-1-4-15-8-29-22-57t-46-56-69-27q-47 0-68 27t-21 56q0 19 36 120t37 152q0 59-44 59h-5q-86 0-145-101l-7-12-33-134Q156 26 151 16q-13-27-43-27-13 0-21 6T76 7t-2 10q0 13 38 163t40 163q1 5 1 23 0 39-24 39-38 0-63-100-6-20-6-21-2-6-19-6H27q-6 6-6 9z"/><path id="c" d="M184 600q0 24 19 42t44 19q18 0 30-12t13-30q0-23-20-42t-44-20q-15 0-28 10t-14 33zM21 287q0 8 9 31t24 51 44 51 60 22q39 0 65-23t27-62q0-17-14-56t-40-105-42-113q-5-22-5-32 0-25 17-25 9 0 19 3t23 14 27 35 25 59q3 12 5 14t17 2q20 0 20-10 0-8-9-31t-25-51-45-50-62-22q-32 0-59 21T74 74q0 17 5 32t43 114q38 101 44 121t7 39q0 24-17 24h-2q-30 0-55-33t-38-84q-1-1-2-3t-1-3-2-2-3-1-4 0-8 0H27q-6 6-6 9z"/><path id="d" d="M26 385q-7 7-7 10 0 4 3 16t5 14q2 5 9 5t51 1h53l19 80q3 11 7 29t7 26 6 20 8 17 10 12 14 9 18 2q18-1 25-11t7-19q0-7-9-47t-20-79l-10-37q0-2 50-2h51q7-7 7-11 0-22-13-35H210l-36-145Q135 80 135 68q0-42 27-42 35 0 68 34t53 84q2 6 5 7t15 2h4q15 0 15-8 0-3-3-12-5-16-18-38t-34-47-51-42-61-17q-30 0-57 15T59 56q-2 8-2 27v18l35 140q35 141 36 142 0 2-51 2H26z"/><path id="e" d="M131 289q0 32 16 65t56 61 97 27q62 0 90-27t29-60q0-32-17-47t-38-16q-13 0-24 8t-12 26q0 16 9 28t17 18 13 6q1 0 1 1 0 3-7 9t-25 11-39 6q-48 0-70-26t-23-53q0-25 19-35t55-17 52-15q66-29 66-96 0-28-11-56t-33-56-63-44-94-17q-77 0-109 29T53 87q0 39 21 56t44 17q15 0 28-9t14-31q0-26-18-44t-31-18q-2-1-3-1t-1-2q1-3 8-8t31-13 55-7q36 0 62 11t38 28 17 31 5 25q0 28-21 42t-48 17-59 15-47 35q-17 25-17 58z"/><path id="f" d="M287 628q0 7-57 9-24 0-31 1t-7 10q0 1 2 11 6 20 9 22t194 2q190-1 203-3 64-11 107-49t44-101q0-77-66-141-69-68-178-86-7-1-105-2h-95l-30-119Q247 66 247 59q0-4 1-5t7-4 17-2 33-2h31q6-9 6-11 0-16-7-30-5-5-16-5-3 0-37 1T182 2q-62 0-95 0T51 1Q33 1 33 11q0 2 3 14 4 16 8 18t23 3q27 0 60 3 14 3 19 12 3 4 72 278t69 289zm358-74q0 13-2 21t-9 22-25 22-49 16q-7 1-80 2-17 0-35 0t-29-1-12 0q-13-1-18-9-2-6-19-77t-35-138-18-68q0-2 81-2h35q112 0 160 50 27 27 41 79t14 83z"/><path id="g" d="M39 168q0 57 19 104t49 78 67 52 70 31 63 9h3q45 0 78-22t33-65q0-90-111-118-49-13-134-14-37 0-38-2 0-2-6-35t-7-58q0-47 21-74t63-28 93 19 92 66q9 10 12 10 4 0 13-9t10-14-9-16-30-27-46-31-63-25-76-10q-79 0-122 53T39 168zm334 185q-6 52-68 52-33 0-61-14t-45-34-29-41-16-36-5-19q0-1 20-1 113 0 158 24t46 69z"/><path id="h" d="M21 287q1 3 2 8t5 22 10 31 15 33 20 30 26 22 33 9q29 0 51-12t31-22 11-20q2-6 3-6t8 7q48 52 111 52h3q48 0 72-41 8-19 8-37 0-30-13-48t-26-23-25-4q-20 0-32 11t-12 29q0 48 56 64-22 13-36 13-56 0-103-74-10-16-15-33t-34-133Q156 25 151 16q-13-27-43-27-13 0-21 6T76 7t-2 10q0 13 40 172t40 177q0 39-26 39-21 0-36-28t-24-61-11-36q-2-2-16-2H27q-6 6-6 9z"/><path id="i" d="M492 213q-20 0-20 13 0 4 5 24t5 35q0 31-21 38t-97 7h-52q-1-2-35-138T243 52q0-4 11-4t80-2q94 0 124 2t60 13q49 16 81 56t71 131q10 22 13 24 7 2 15 2 20 0 20-13Q613 7 608 2q-3-2-286-2H133Q31 0 31 11q0 2 3 14 4 16 8 18t23 3q27 0 60 3 14 3 19 12 2 5 71 281t70 280q0 7-4 7-8 3-53 5h-31q-6 6-6 8t2 17q4 17 10 21h554q7-4 7-11 0-5-13-112t-14-110q-2-7-20-7h-12q-7 5-7 13l3 23q3 24 3 52 0 30-7 50t-19 31-35 16-47 7-64 2h-47q-88-1-93-3-4-2-6-9-1-3-31-123t-31-122q23-1 48-1h26q66 0 91 15t45 81q4 16 6 18t17 3q5 0 8 0t5-1 2-1 2-4 3-4l-33-132q-33-133-36-135-3-3-16-3z"/><path id="j" d="M21 287q1 6 3 16t12 38 20 47 32 37 44 17 43-7 30-18 16-22 8-19l2-7q0-2 1-2l11 11q60 64 141 64 17 0 31-2t26-7 19-10 15-12 10-13 8-13 4-12 3-9 2-7l8 10q63 75 149 75 54 0 87-27t34-79q0-51-38-158T704 50q1-14 5-19t15-5q28 0 52 30t39 82q3 11 6 13t16 2q20 0 20-8 0-1-4-15-8-29-22-57t-46-56-69-27q-47 0-68 27t-21 56q0 19 36 120t37 152q0 59-44 59h-5q-86 0-145-101l-7-12-33-134Q433 26 428 16q-13-27-43-27-13 0-21 7T353 8t-3 10q0 11 34 143l36 146q3 15 3 38 0 59-44 59h-5q-86 0-145-101l-7-12-33-134Q156 26 151 16q-13-27-43-27-13 0-21 6T76 7t-2 10q0 13 38 164 39 154 39 161 3 15 3 27 0 36-25 36-22 0-37-28t-23-61-12-36q-2-2-16-2H27q-6 6-6 9z"/><path id="k" d="M84 237v13l14 20h581q15-8 15-20t-15-20H98q-14 7-14 20z"/><path id="l" d="M137 683q1 0 72 5t73 6q12 0 12-9 0-11-36-151-38-148-38-151 0-2 7 5 61 54 130 54 54 0 87-27t34-79q0-51-38-158T402 50q1-14 5-19t15-5q28 0 52 30t39 82q3 11 6 13t16 2q20 0 20-8 0-1-4-15-16-59-51-97-34-43-81-43h-5q-47 0-68 27t-21 57q0 16 36 118t37 153q0 59-44 59h-5q-83 0-144-98l-7-13-34-135Q132 28 127 16q-13-27-44-27-14 0-24 9T48 16q0 14 73 304l74 296q0 13-7 16t-39 5h-21q-6 6-6 8t2 19q5 19 13 19z"/><path id="m" d="M33 157q0 101 76 192t171 92q51 0 90-49 16 30 46 30 13 0 23-8t10-20q0-13-37-160T374 68q0-25 7-33t21-9q9 1 20 9 21 20 41 96 6 20 10 21 2 1 10 1h4q19 0 19-9 0-6-5-27t-20-54-32-50Q436 0 417-8q-8-2-24-2-34 0-57 15t-30 31l-6 15q-1 1-4-1l-4-4q-59-56-120-56-55 0-97 40T33 157zm318 171q0 6-5 22t-23 35-46 20q-35 0-67-31t-50-81q-29-79-41-164 0-3 0-11t-1-12q0-45 18-62t43-18q38 0 75 33t44 51q2 4 27 107t26 111z"/><path id="n" d="M78 60q0 24 17 42t43 18q24 0 42-16t19-43q0-25-17-43T139 0 96 17 78 60z"/><path id="o" d="M208 74q0-24 46-28 18 0 18-11 0-1-2-13-3-14-6-18t-13-4q-2 0-12 0t-34 1-64 1Q70 2 50 0h-8q-7 7-7 11 2 27 13 35h14q70 3 102 50 6 6 181 305t178 303q7 12 24 12h25q6-9 6-10l28-323q28-323 30-326 5-11 65-11 25 0 25-10 0-2-3-14-3-15-5-18t-14-4q-3 0-14 0t-39 1-73 1q-94 0-123-2h-12q-6 6-6 9t2 18q4 13 6 16l4 3h20q54 3 64 17l-12 150H283l-34-58q-41-69-41-81zm308 186q0 11-12 156t-14 146l-27-43q-16-27-63-107l-90-152 103-1q103 0 103 1z"/><path id="p" d="M34 159q0 109 86 196t186 87q56 0 88-24t33-63q0-29-19-49t-48-21q-19 0-30 10t-11 30 11 34 22 21 14 6h1q0 2-6 6t-21 8-34 4q-30 0-57-14-21-9-43-31-44-44-64-124t-21-116q0-46 26-69 22-24 58-24h4q112 0 185 85 9 10 12 10 4 0 13-9t10-14-9-15-29-28-45-30-64-25-80-11q-75 0-121 48T34 159z"/><path id="q" d="M366 683q1 0 72 5t73 6q12 0 12-8 0-7-73-302T375 83t-1-15q0-42 28-42 9 1 20 9 21 20 41 96 6 20 10 21 2 1 10 1h8q15 0 15-8 0-5-3-16-13-50-30-81T445 8 417-8q-8-2-24-2-34 0-57 15t-30 31l-6 15q-1 1-4-1l-4-4q-59-56-120-56-55 0-97 40T33 157q0 48 20 98t48 86q47 57 94 79t85 22q56 0 84-42 5-6 5-4 1 4 27 109t28 111q0 13-7 16t-39 5h-21q-6 6-6 8t2 19q5 19 13 19zm-14-357q-23 79-75 79-35 0-67-31t-50-81q-29-79-41-164 0-3 0-11t-1-12q0-45 18-62t43-18q54 0 111 72l8 11 54 217z"/><path id="r" d="M287 628q0 7-57 9-23 0-30 1t-7 9q0 8 4 20t7 15q2 1 199 1 167-1 187-1t40-6q72-17 122-79t51-166q0-156-107-280T444 3l-14-2-194-1H72Q48 0 41 2t-8 9q0 2 3 14 4 16 8 18t23 3q27 0 60 3 14 3 19 12 3 4 72 278t69 289zm416-159q0 38-11 68t-26 47-37 29-39 16-35 7h-43l-33 1h-43q-44 0-50-10-2-4-73-288T242 52q0-4 11-4t77-1q5 0 19 0t24-1q126 0 208 82 36 36 59 84t43 127 20 130z"/><path id="s" d="M109 429q-27 0-43 18t-16 44q0 71 53 123t132 52q91 0 152-56t62-145q0-43-20-82t-48-68-80-74q-36-31-100-92l-59-56 76-1q157 0 167 5 7 2 24 89v3h40v-3q-1-3-13-91T421 3V0H50v31q0 7 6 15t30 35q29 32 50 56 9 10 34 37t34 37 29 33 28 34 23 30 21 32 15 29 13 32 7 30 3 33q0 63-34 109t-97 46q-33 0-58-17t-35-33-10-19q0-1 5-1 18 0 37-14t19-46q0-25-16-42t-45-18z"/><path id="t" d="M630 29q0-20-21-20-5 0-22 16t-94 93L389 222 284 117Q178 13 175 11q-4-2-7-2-8 0-14 6t-7 14q0 7 14 22t94 95l104 104-104 104q-81 81-94 95t-14 22q0 9 6 14t15 5q5 0 7-1 3-2 109-106l105-105 104 104q77 77 94 93t22 16q21 0 21-20 0-7-10-18t-98-98L418 250l104-105q84-84 96-97t12-19z"/></defs><g stroke="currentColor" fill="currentColor" stroke-width="0"><path d="M120-220h22479v-60H120z" stroke="none"/><g transform="matrix(1 0 0 -1 180 -676)"><use xmlns:xlink="http://www.w3.org/1999/xlink" xlink:href="#a"/><use xmlns:xlink="http://www.w3.org/1999/xlink" xlink:href="#b" x="767"/><use xmlns:xlink="http://www.w3.org/1999/xlink" xlink:href="#c" x="1368"/><use xmlns:xlink="http://www.w3.org/1999/xlink" xlink:href="#d" x="1713"/><use xmlns:xlink="http://www.w3.org/1999/xlink" xlink:href="#e" x="2075"/><use xmlns:xlink="http://www.w3.org/1999/xlink" xlink:href="#f" x="2544"/><use xmlns:xlink="http://www.w3.org/1999/xlink" xlink:href="#g" x="3296"/><use xmlns:xlink="http://www.w3.org/1999/xlink" xlink:href="#h" x="3762"/><use xmlns:xlink="http://www.w3.org/1999/xlink" xlink:href="#i" x="4214"/><use xmlns:xlink="http://www.w3.org/1999/xlink" xlink:href="#j" x="4978"/><use xmlns:xlink="http://www.w3.org/1999/xlink" xlink:href="#k" x="6079"/><use xmlns:xlink="http://www.w3.org/1999/xlink" xlink:href="#l" x="7079"/><use xmlns:xlink="http://www.w3.org/1999/xlink" xlink:href="#l" x="7656"/><use xmlns:xlink="http://www.w3.org/1999/xlink" xlink:href="#g" x="8232"/><use xmlns:xlink="http://www.w3.org/1999/xlink" xlink:href="#m" x="8699"/><use xmlns:xlink="http://www.w3.org/1999/xlink" xlink:href="#n" x="9228"/><use xmlns:xlink="http://www.w3.org/1999/xlink" xlink:href="#o" x="9674"/><use xmlns:xlink="http://www.w3.org/1999/xlink" xlink:href="#e" x="10424"/><use xmlns:xlink="http://www.w3.org/1999/xlink" xlink:href="#p" x="10894"/><use xmlns:xlink="http://www.w3.org/1999/xlink" xlink:href="#g" x="11327"/><use xmlns:xlink="http://www.w3.org/1999/xlink" xlink:href="#b" x="11794"/><use xmlns:xlink="http://www.w3.org/1999/xlink" xlink:href="#q" x="12394"/><use xmlns:xlink="http://www.w3.org/1999/xlink" xlink:href="#g" x="12918"/><use xmlns:xlink="http://www.w3.org/1999/xlink" xlink:href="#h" x="13384"/><use xmlns:xlink="http://www.w3.org/1999/xlink" xlink:href="#k" x="14058"/><use xmlns:xlink="http://www.w3.org/1999/xlink" xlink:href="#l" x="15059"/><use xmlns:xlink="http://www.w3.org/1999/xlink" xlink:href="#l" x="15635"/><use xmlns:xlink="http://www.w3.org/1999/xlink" xlink:href="#g" x="16212"/><use xmlns:xlink="http://www.w3.org/1999/xlink" xlink:href="#m" x="16678"/><use xmlns:xlink="http://www.w3.org/1999/xlink" xlink:href="#n" x="17208"/><use xmlns:xlink="http://www.w3.org/1999/xlink" xlink:href="#r" x="17653"/><use xmlns:xlink="http://www.w3.org/1999/xlink" xlink:href="#g" x="18481"/><use xmlns:xlink="http://www.w3.org/1999/xlink" xlink:href="#e" x="18948"/><use xmlns:xlink="http://www.w3.org/1999/xlink" xlink:href="#p" x="19417"/><use xmlns:xlink="http://www.w3.org/1999/xlink" xlink:href="#g" x="19851"/><use xmlns:xlink="http://www.w3.org/1999/xlink" xlink:href="#b" x="20317"/><use xmlns:xlink="http://www.w3.org/1999/xlink" xlink:href="#q" x="20918"/><use xmlns:xlink="http://www.w3.org/1999/xlink" xlink:href="#g" x="21441"/><use xmlns:xlink="http://www.w3.org/1999/xlink" xlink:href="#h" x="21908"/></g><g transform="matrix(1 0 0 -1 7569 686)"><use xmlns:xlink="http://www.w3.org/1999/xlink" xlink:href="#s"/><use xmlns:xlink="http://www.w3.org/1999/xlink" xlink:href="#t" x="722"/><use xmlns:xlink="http://www.w3.org/1999/xlink" xlink:href="#a" x="1723"/><use xmlns:xlink="http://www.w3.org/1999/xlink" xlink:href="#b" x="2490"/><use xmlns:xlink="http://www.w3.org/1999/xlink" xlink:href="#c" x="3091"/><use xmlns:xlink="http://www.w3.org/1999/xlink" xlink:href="#d" x="3436"/><use xmlns:xlink="http://www.w3.org/1999/xlink" xlink:href="#e" x="3798"/><use xmlns:xlink="http://www.w3.org/1999/xlink" xlink:href="#f" x="4267"/><use xmlns:xlink="http://www.w3.org/1999/xlink" xlink:href="#g" x="5019"/><use xmlns:xlink="http://www.w3.org/1999/xlink" xlink:href="#h" x="5485"/><use xmlns:xlink="http://www.w3.org/1999/xlink" xlink:href="#i" x="5937"/><use xmlns:xlink="http://www.w3.org/1999/xlink" xlink:href="#j" x="6701"/></g></g></svg>